<svg width="23" height="22" viewBox="0 0 23 22" fill="none" xmlns="http://www.w3.org/2000/svg">
<path d="M8.14022 14.3555C7.8503 14.0656 7.8503 13.5848 8.14022 13.2949L10.2615 11.1736L7.60989 8.52191C7.22098 8.133 6.58458 8.133 6.19567 8.52191L4.61882 10.0988C2.39144 12.3261 2.2783 16.088 4.58347 18.2234C5.63706 19.1921 6.97349 19.6801 8.31699 19.6801C9.72413 19.673 11.1313 19.1427 12.2061 18.0678L13.9738 16.3001C14.3628 15.9112 14.3628 15.2748 13.9738 14.8859L11.3222 12.2342L9.20088 14.3555C8.91096 14.6455 8.43013 14.6455 8.14022 14.3555Z" fill="#4894FE"/>
<path d="M14.6805 2.31349C13.2733 2.32057 11.8662 2.85089 10.7914 3.9257L9.02363 5.69346C8.63473 6.08237 8.63473 6.71877 9.02363 7.10768L11.6753 9.75933L13.7966 7.63801C14.0865 7.34809 14.5674 7.34809 14.8573 7.63801C15.1472 7.92792 15.1472 8.40875 14.8573 8.69867L12.7359 10.82L15.3876 13.4716C15.7765 13.8605 16.4129 13.8605 16.8018 13.4716L18.3787 11.8948C20.606 9.6674 20.7192 5.9056 18.4069 3.7772C17.3604 2.8014 16.0169 2.32057 14.6805 2.31349Z" fill="#4894FE"/>
<path d="M11.6753 9.75933L10.2611 11.1735L11.3218 12.2342L12.736 10.82L11.6753 9.75933Z" fill="#4894FE"/>
</svg>
